<svg xmlns="http://www.w3.org/2000/svg" width="22.665" height="22.665" viewBox="0 0 22.665 22.665">
  <g id="Group_809" data-name="Group 809" transform="translate(-48 -411.999)">
    <g id="Group_806" data-name="Group 806" transform="translate(48 411.999)">
      <path id="Path_797" data-name="Path 797" d="M59.333,434.664a11.333,11.333,0,1,1,11.332-11.333A11.346,11.346,0,0,1,59.333,434.664Zm0-20.922a9.589,9.589,0,1,0,9.589,9.589A9.6,9.6,0,0,0,59.333,413.742Z" transform="translate(-48 -411.999)" fill="#939ea6"/>
    </g>
    <g id="Group_807" data-name="Group 807" transform="translate(58.461 418.101)">
      <path id="Path_798" data-name="Path 798" d="M72.873,436.46a.872.872,0,0,1-.872-.872v-8.718a.872.872,0,0,1,1.743,0v8.718A.872.872,0,0,1,72.873,436.46Z" transform="translate(-72.001 -425.999)" fill="#939ea6"/>
    </g>
    <g id="Group_808" data-name="Group 808" transform="translate(54.102 422.46)">
      <path id="Path_799" data-name="Path 799" d="M71.589,437.742H62.872a.872.872,0,1,1,0-1.743h8.718a.872.872,0,1,1,0,1.743Z" transform="translate(-62 -435.999)" fill="#939ea6"/>
    </g>
  </g>
</svg>
