<svg id="Group_1065" data-name="Group 1065" xmlns="http://www.w3.org/2000/svg" width="21.12" height="21.12" viewBox="0 0 21.12 21.12">
  <rect id="Rectangle_1493" data-name="Rectangle 1493" width="1.805" height="1.444" transform="translate(2.98 9.472)" fill="#939ea6"/>
  <rect id="Rectangle_1494" data-name="Rectangle 1494" width="1.805" height="1.444" transform="translate(6.231 9.472)" fill="#939ea6"/>
  <rect id="Rectangle_1495" data-name="Rectangle 1495" width="1.444" height="1.444" transform="translate(9.842 9.472)" fill="#939ea6"/>
  <rect id="Rectangle_1496" data-name="Rectangle 1496" width="1.805" height="1.444" transform="translate(13.093 9.472)" fill="#939ea6"/>
  <rect id="Rectangle_1497" data-name="Rectangle 1497" width="1.805" height="1.444" transform="translate(16.345 9.472)" fill="#939ea6"/>
  <rect id="Rectangle_1498" data-name="Rectangle 1498" width="1.805" height="1.444" transform="translate(2.98 13.084)" fill="#939ea6"/>
  <rect id="Rectangle_1499" data-name="Rectangle 1499" width="1.805" height="1.444" transform="translate(6.231 13.084)" fill="#939ea6"/>
  <rect id="Rectangle_1500" data-name="Rectangle 1500" width="1.444" height="1.444" transform="translate(9.842 13.084)" fill="#939ea6"/>
  <rect id="Rectangle_1501" data-name="Rectangle 1501" width="1.805" height="1.444" transform="translate(13.093 13.084)" fill="#939ea6"/>
  <rect id="Rectangle_1502" data-name="Rectangle 1502" width="1.805" height="2.166" transform="translate(2.98 15.974)" fill="#939ea6"/>
  <rect id="Rectangle_1503" data-name="Rectangle 1503" width="1.805" height="2.166" transform="translate(6.231 15.974)" fill="#939ea6"/>
  <rect id="Rectangle_1504" data-name="Rectangle 1504" width="1.444" height="2.166" transform="translate(9.842 15.974)" fill="#939ea6"/>
  <rect id="Rectangle_1505" data-name="Rectangle 1505" width="1.805" height="2.166" transform="translate(13.093 15.974)" fill="#939ea6"/>
  <rect id="Rectangle_1506" data-name="Rectangle 1506" width="1.805" height="1.444" transform="translate(16.345 13.084)" fill="#939ea6"/>
  <path id="Path_58" data-name="Path 58" d="M195.585,261.426H194.3v-1.693h-1.151v1.693H181.438v-1.693h-1.151v1.693H179a2.274,2.274,0,0,0-2.268,2.268v14.892A2.274,2.274,0,0,0,179,280.853h16.584a2.274,2.274,0,0,0,2.267-2.268V263.693A2.273,2.273,0,0,0,195.585,261.426Zm1.117,17.16a1.12,1.12,0,0,1-1.116,1.117H179a1.121,1.121,0,0,1-1.117-1.117v-11.44H196.7Zm0-12.591H177.884v-2.3A1.12,1.12,0,0,1,179,262.576h1.287v1.693h1.151v-1.693h11.71v1.693H194.3v-1.693h1.286a1.119,1.119,0,0,1,1.117,1.117Z" transform="translate(-176.733 -259.733)" fill="#939ea6"/>
</svg>
