<svg xmlns="http://www.w3.org/2000/svg" width="28.643" height="25.699" viewBox="0 0 28.643 25.699">
  <g id="Group_1061" data-name="Group 1061" transform="translate(0 -26.315)">
    <g id="Group_937" data-name="Group 937" transform="translate(0 26.315)">
      <path id="Path_870" data-name="Path 870" d="M28.186,46.962,17.238,28A3.368,3.368,0,0,0,11.4,28L.456,46.962a3.368,3.368,0,0,0,2.917,5.052h21.9a3.368,3.368,0,0,0,2.917-5.052Zm-1.453,2.529a1.673,1.673,0,0,1-1.464.845H3.373A1.69,1.69,0,0,1,1.91,47.8L12.858,28.838a1.69,1.69,0,0,1,2.927,0L26.733,47.8A1.673,1.673,0,0,1,26.733,49.491Z" transform="translate(0 -26.315)" fill="#939ea6"/>
    </g>
    <rect id="Rectangle_1801" data-name="Rectangle 1801" width="1.678" height="8.39" transform="translate(13.482 34.689)" fill="#939ea6"/>
    <g id="Group_941" data-name="Group 941" transform="translate(13.202 44.758)">
      <path id="Path_871" data-name="Path 871" d="M237.121,355.99a1.119,1.119,0,1,0,1.119,1.119A1.12,1.12,0,0,0,237.121,355.99Z" transform="translate(-236.002 -355.99)" fill="#939ea6"/>
    </g>
  </g>
</svg>
