<svg xmlns="http://www.w3.org/2000/svg" width="27.382" height="27.382" viewBox="0 0 27.382 27.382">
  <g id="Group_1062" data-name="Group 1062" transform="translate(-48 -48)">
    <g id="Group_952" data-name="Group 952" transform="translate(48 48)">
      <path id="Path_872" data-name="Path 872" d="M61.691,75.382A13.691,13.691,0,1,1,75.382,61.691,13.706,13.706,0,0,1,61.691,75.382Zm0-25.276A11.585,11.585,0,1,0,73.276,61.691,11.6,11.6,0,0,0,61.691,50.106Z" transform="translate(-48 -48)" fill="#939ea6"/>
    </g>
    <path id="Path_873" data-name="Path 873" d="M148.844,172.638a1.053,1.053,0,0,1-.783-.349l-3.791-4.213a1.053,1.053,0,1,1,1.566-1.409l2.981,3.312,8.067-9.6a1.053,1.053,0,1,1,1.613,1.355l-8.846,10.531a1.053,1.053,0,0,1-.788.376Z" transform="translate(-89.681 -104.628)" fill="#939ea6"/>
  </g>
</svg>
