<svg xmlns="http://www.w3.org/2000/svg" width="58.5" height="58.5" viewBox="0 0 58.5 58.5">
  <g id="Group_1003" data-name="Group 1003" transform="translate(-176.733 -259.733)">
    <rect id="Rectangle_1493" data-name="Rectangle 1493" width="5" height="4" transform="translate(184.988 285.97)" fill="#4980fe"/>
    <rect id="Rectangle_1494" data-name="Rectangle 1494" width="5" height="4" transform="translate(193.992 285.97)" fill="#4980fe"/>
    <rect id="Rectangle_1495" data-name="Rectangle 1495" width="4" height="4" transform="translate(203.996 285.97)" fill="#4980fe"/>
    <rect id="Rectangle_1496" data-name="Rectangle 1496" width="5" height="4" transform="translate(213 285.97)" fill="#4980fe"/>
    <rect id="Rectangle_1497" data-name="Rectangle 1497" width="5" height="4" transform="translate(222.008 285.97)" fill="#4980fe"/>
    <rect id="Rectangle_1498" data-name="Rectangle 1498" width="5" height="4" transform="translate(184.988 295.975)" fill="#4980fe"/>
    <rect id="Rectangle_1499" data-name="Rectangle 1499" width="5" height="4" transform="translate(193.992 295.975)" fill="#4980fe"/>
    <rect id="Rectangle_1500" data-name="Rectangle 1500" width="4" height="4" transform="translate(203.996 295.975)" fill="#4980fe"/>
    <rect id="Rectangle_1501" data-name="Rectangle 1501" width="5" height="4" transform="translate(213 295.975)" fill="#4980fe"/>
    <rect id="Rectangle_1502" data-name="Rectangle 1502" width="5" height="6" transform="translate(184.988 303.979)" fill="#4980fe"/>
    <rect id="Rectangle_1503" data-name="Rectangle 1503" width="5" height="6" transform="translate(193.992 303.979)" fill="#4980fe"/>
    <rect id="Rectangle_1504" data-name="Rectangle 1504" width="4" height="6" transform="translate(203.996 303.979)" fill="#4980fe"/>
    <rect id="Rectangle_1505" data-name="Rectangle 1505" width="5" height="6" transform="translate(213 303.979)" fill="#4980fe"/>
    <rect id="Rectangle_1506" data-name="Rectangle 1506" width="5" height="4" transform="translate(222.008 295.975)" fill="#4980fe"/>
    <path id="Path_58" data-name="Path 58" d="M228.952,264.422H225.39v-4.689H222.2v4.689H189.765v-4.689h-3.187v4.689h-3.563a6.3,6.3,0,0,0-6.282,6.281v41.249a6.3,6.3,0,0,0,6.283,6.281h45.937a6.3,6.3,0,0,0,6.28-6.282V270.7A6.3,6.3,0,0,0,228.952,264.422Zm3.094,47.531a3.1,3.1,0,0,1-3.092,3.094H183.015a3.1,3.1,0,0,1-3.1-3.094V280.265h52.126Zm0-34.876H179.921V270.7a3.1,3.1,0,0,1,3.093-3.094h3.564V272.3h3.188v-4.689H222.2V272.3h3.188v-4.689h3.563a3.1,3.1,0,0,1,3.093,3.093Z" fill="#4980fe"/>
  </g>
</svg>
