<svg xmlns="http://www.w3.org/2000/svg" width="58" height="58" viewBox="0 0 58 58">
    <defs>
        <style>
            .prefix__cls-1{fill:none;stroke:#4980fe;stroke-width:3px}
        </style>
    </defs>
    <g id="prefix__dashboard_1_" data-name="dashboard (1)" transform="translate(1.5 1.5)">
        <path id="prefix__Path_44" d="M21.2 0H4.01A4.015 4.015 0 0 0 0 4.01v10.313a4.015 4.015 0 0 0 4.01 4.011H21.2a4.015 4.015 0 0 0 4.011-4.011V4.01A4.015 4.015 0 0 0 21.2 0zm0 0" class="prefix__cls-1" data-name="Path 44"/>
        <path id="prefix__Path_45" d="M21.2 213.332H4.01A4.015 4.015 0 0 0 0 217.343v24.062a4.015 4.015 0 0 0 4.01 4.01H21.2a4.015 4.015 0 0 0 4.011-4.01v-24.062a4.015 4.015 0 0 0-4.011-4.011zm0 0" class="prefix__cls-1" data-name="Path 45" transform="translate(0 -190.415)"/>
        <path id="prefix__Path_46" d="M298.53 341.332h-17.187a4.015 4.015 0 0 0-4.011 4.011v10.312a4.015 4.015 0 0 0 4.011 4.01h17.187a4.015 4.015 0 0 0 4.01-4.01v-10.312a4.015 4.015 0 0 0-4.01-4.011zm0 0" class="prefix__cls-1" data-name="Path 46" transform="translate(-247.541 -304.665)"/>
        <path id="prefix__Path_47" d="M298.53 0h-17.187a4.015 4.015 0 0 0-4.011 4.01v24.063a4.015 4.015 0 0 0 4.011 4.011h17.187a4.015 4.015 0 0 0 4.01-4.011V4.01A4.015 4.015 0 0 0 298.53 0zm0 0" class="prefix__cls-1" data-name="Path 47" transform="translate(-247.541)"/>
    </g>
</svg>
