<svg xmlns="http://www.w3.org/2000/svg" width="60.375" height="60.377" viewBox="0 0 60.375 60.377">
    <defs>
        <style>
            .prefix__cls-1{fill:#fff}
        </style>
    </defs>
    <g id="prefix__money" transform="translate(-.007)">
        <g id="prefix__Group_14" data-name="Group 14" transform="translate(11.469 50.263)">
            <path id="prefix__Path_48" d="M70.88 452.495a1.684 1.684 0 1 0 .494 1.192 1.7 1.7 0 0 0-.494-1.192z" class="prefix__cls-1" data-name="Path 48" transform="translate(-68.003 -452.001)"/>
        </g>
        <g id="prefix__Group_16" data-name="Group 16" transform="translate(50.346 20.857)">
            <path id="prefix__Path_49" d="M455.331 180.5a1.681 1.681 0 1 0 .5 1.192 1.695 1.695 0 0 0-.5-1.192z" class="prefix__cls-1" data-name="Path 49" transform="translate(-452.454 -180.008)"/>
        </g>
        <g id="prefix__Group_18" data-name="Group 18" transform="translate(.007)">
            <path id="prefix__Path_50" d="M60.037.345A1.18 1.18 0 0 0 59.2 0H30.194a1.179 1.179 0 0 0-1.179 1.179v3.374l-11.178 3A1.179 1.179 0 0 0 17 8.992l5.8 21.621-5.012 5.012a3.536 3.536 0 0 0-2.92-1.544H3.545a3.542 3.542 0 0 0-3.538 3.537v19.221a3.542 3.542 0 0 0 3.538 3.538h11.32a3.543 3.543 0 0 0 3.435-2.686l1.4 1.223a5.941 5.941 0 0 0 3.905 1.464H59.2a1.179 1.179 0 0 0 1.182-1.178V1.179a1.18 1.18 0 0 0-.345-.834zM16.044 56.839a1.181 1.181 0 0 1-1.179 1.179H3.544a1.181 1.181 0 0 1-1.179-1.179V37.618a1.181 1.181 0 0 1 1.179-1.179h4.481v13.584a1.179 1.179 0 0 0 2.358 0V36.439h4.481a1.181 1.181 0 0 1 1.179 1.179v19.221zm3.543-47.318l9.428-2.526v4.37l-.79.212a1.179 1.179 0 0 0-.834 1.444 3.179 3.179 0 0 1-2.245 3.889 1.179 1.179 0 0 0-.833 1.447l4.6 17.021h-2.37l-1.22-4.778a1.177 1.177 0 0 0-.2-.414zm9.428 7.251v9.951l-2.151-7.964a5.524 5.524 0 0 0 2.151-1.987zm16.942 41.246H23.606a3.583 3.583 0 0 1-2.355-.883L18.4 54.652V38.343l5.148-5.148.934 3.653a1.179 1.179 0 0 0 1.142.887h23.187a1.651 1.651 0 0 1 0 3.3H36.932a1.179 1.179 0 0 0 0 2.358H52.5a1.651 1.651 0 0 1 0 3.3H36.932a1.179 1.179 0 0 0 0 2.358h13.047a1.651 1.651 0 1 1 0 3.3H36.932a1.179 1.179 0 0 0 0 2.358h9.025a1.651 1.651 0 1 1 0 3.3zm12.067 0h-8.415a4 4 0 0 0 0-3.3h.37a4.007 4.007 0 0 0 3.584-5.8 4.006 4.006 0 0 0 2.157-6.254V27.713a1.179 1.179 0 1 0-2.358 0v13.419a4.01 4.01 0 0 0-.86-.094h-.039a4.007 4.007 0 0 0-3.652-5.66h-1.9a5.643 5.643 0 1 0-4.434 0h-6.442V12.955a5.551 5.551 0 0 0 4.228-4.228h8.87a5.551 5.551 0 0 0 4.228 4.228v3.666a1.179 1.179 0 1 0 2.358 0V11.9a1.179 1.179 0 0 0-1.179-1.179 3.179 3.179 0 0 1-3.175-3.175 1.179 1.179 0 0 0-1.179-1.179H39.211a1.179 1.179 0 0 0-1.179 1.179 3.179 3.179 0 0 1-3.175 3.175 1.179 1.179 0 0 0-1.18 1.179v23.478h-2.3V2.36h26.65zM44.7 33.474a3.285 3.285 0 1 1 3.285-3.285 3.289 3.289 0 0 1-3.285 3.285z" class="prefix__cls-1" data-name="Path 50" transform="translate(-.007)"/>
        </g>
    </g>
</svg>
