<svg xmlns="http://www.w3.org/2000/svg" width="60" height="60" viewBox="0 0 60 60">
    <defs>
        <style>
            .prefix__cls-1{fill:#fff}
        </style>
    </defs>
    <g id="prefix__school" transform="translate(0 -21.68)">
        <g id="prefix__Group_54" data-name="Group 54" transform="translate(0 21.68)">
            <path id="prefix__Path_59" d="M58.966 49.558H45.734v-2.819a1.165 1.165 0 0 0-.528-.993L31.034 36.96v-4.474h2.8v1.7a1.092 1.092 0 0 0 1.034 1.141h8.452a1.092 1.092 0 0 0 1.034-1.142 1.247 1.247 0 0 0-.054-.385l-.848-2.659.859-2.6a1.176 1.176 0 0 0-.621-1.461.95.95 0 0 0-.351-.068h-3.853v-1.658a1.092 1.092 0 0 0-1.034-1.141h-7.418v-1.392a1.039 1.039 0 1 0-2.069 0V36.96l-14.172 8.775a1.165 1.165 0 0 0-.528.993v2.819H1.034A1.092 1.092 0 0 0 0 50.687v29.852a1.092 1.092 0 0 0 1.034 1.141h57.932A1.092 1.092 0 0 0 60 80.539V50.7a1.092 1.092 0 0 0-1.034-1.142zm-19.48-18.213l-.041-.046v-1.962H41.8l-.421 1.463a1.252 1.252 0 0 0 0 .787l.486 1.461h-5.958v-.559h2.545a1.092 1.092 0 0 0 1.034-1.144zM31.034 26.5h6.383v3.7h-6.383zM14.266 79.4H2.069V51.84h12.2zm14.7 0h-5.432V66.366h5.431zm7.5 0h-5.432V66.366h5.431zm7.241 0h-5.173V65.225a1.092 1.092 0 0 0-1.034-1.141h-15a1.092 1.092 0 0 0-1.034 1.141V79.4h-5.173V47.446L30 38.934 43.666 47.4l.041 3.286zm14.224 0h-12.2V51.84h12.2z" class="prefix__cls-1" data-name="Path 59" transform="translate(0 -21.68)"/>
        </g>
        <g id="prefix__Group_56" data-name="Group 56" transform="translate(25.149 42.368)">
            <path id="prefix__Path_60" d="M203.331 167.12a4.851 4.851 0 1 0 4.851 4.839 4.862 4.862 0 0 0-4.851-4.839zm0 7.386a2.535 2.535 0 1 1 2.535-2.524h.012a2.535 2.535 0 0 1-2.547 2.524z" class="prefix__cls-1" data-name="Path 60" transform="translate(-198.48 -167.12)"/>
        </g>
        <path id="prefix__Rectangle_1493" d="M0 0H2.315V4.631H0z" class="prefix__cls-1" data-name="Rectangle 1493" transform="translate(5.106 54.311)"/>
        <path id="prefix__Rectangle_1494" d="M0 0H2.315V4.631H0z" class="prefix__cls-1" data-name="Rectangle 1494" transform="translate(10.813 54.311)"/>
        <path id="prefix__Rectangle_1495" d="M0 0H4.631V2.315H0z" class="prefix__cls-1" data-name="Rectangle 1495" transform="translate(19.266 54.331)"/>
        <path id="prefix__Rectangle_1496" d="M0 0H4.631V2.315H0z" class="prefix__cls-1" data-name="Rectangle 1496" transform="translate(27.685 54.331)"/>
        <path id="prefix__Rectangle_1497" d="M0 0H4.631V2.315H0z" class="prefix__cls-1" data-name="Rectangle 1497" transform="translate(36.103 54.331)"/>
        <path id="prefix__Rectangle_1498" d="M0 0H4.631V2.315H0z" class="prefix__cls-1" data-name="Rectangle 1498" transform="translate(19.266 59.646)"/>
        <path id="prefix__Rectangle_1499" d="M0 0H4.631V2.315H0z" class="prefix__cls-1" data-name="Rectangle 1499" transform="translate(27.685 59.646)"/>
        <path id="prefix__Rectangle_1500" d="M0 0H4.631V2.315H0z" class="prefix__cls-1" data-name="Rectangle 1500" transform="translate(36.103 59.646)"/>
        <path id="prefix__Rectangle_1501" d="M0 0H2.315V4.631H0z" class="prefix__cls-1" data-name="Rectangle 1501" transform="translate(5.106 63.281)"/>
        <path id="prefix__Rectangle_1502" d="M0 0H2.315V4.631H0z" class="prefix__cls-1" data-name="Rectangle 1502" transform="translate(10.813 63.281)"/>
        <path id="prefix__Rectangle_1503" d="M0 0H2.315V4.631H0z" class="prefix__cls-1" data-name="Rectangle 1503" transform="translate(5.106 72.187)"/>
        <path id="prefix__Rectangle_1504" d="M0 0H2.315V4.631H0z" class="prefix__cls-1" data-name="Rectangle 1504" transform="translate(10.813 72.187)"/>
        <path id="prefix__Rectangle_1505" d="M0 0H2.315V4.631H0z" class="prefix__cls-1" data-name="Rectangle 1505" transform="translate(46.871 54.311)"/>
        <path id="prefix__Rectangle_1506" d="M0 0H2.315V4.631H0z" class="prefix__cls-1" data-name="Rectangle 1506" transform="translate(52.579 54.311)"/>
        <path id="prefix__Rectangle_1507" d="M0 0H2.315V4.631H0z" class="prefix__cls-1" data-name="Rectangle 1507" transform="translate(46.871 63.281)"/>
        <path id="prefix__Rectangle_1508" d="M0 0H2.315V4.631H0z" class="prefix__cls-1" data-name="Rectangle 1508" transform="translate(52.579 63.281)"/>
        <path id="prefix__Rectangle_1509" d="M0 0H2.315V4.631H0z" class="prefix__cls-1" data-name="Rectangle 1509" transform="translate(46.871 72.187)"/>
        <path id="prefix__Rectangle_1510" d="M0 0H2.315V4.631H0z" class="prefix__cls-1" data-name="Rectangle 1510" transform="translate(52.579 72.187)"/>
    </g>
</svg>
