<svg xmlns="http://www.w3.org/2000/svg" width="51.322" height="61.004" viewBox="0 0 51.322 61.004">
    <g id="prefix__student" transform="translate(-5.5 -.495)">
        <path id="prefix__Path_52" d="M54.386 19.565v-6.491l1.328-.531a.968.968 0 0 0 0-1.8L31.521 1.069a.962.962 0 0 0-.719 0L6.609 10.746a.969.969 0 0 0 0 1.8l9.07 3.627v6.217a4.832 4.832 0 0 0 .121 9.494 15.5 15.5 0 0 0 7.883 11.7h-9.94a6.782 6.782 0 0 0-6.774 6.774v9.677a.967.967 0 0 0 .966.965h46.451a.967.967 0 0 0 .968-.968v-9.678a6.782 6.782 0 0 0-6.774-6.774h-9.94a15.507 15.507 0 0 0 7.883-11.7 4.832 4.832 0 0 0 .121-9.494v-6.215l5.806-2.323v5.716a2.9 2.9 0 1 0 1.935 0zm-9.677-1.744l-.283-.141a29.663 29.663 0 0 0-26.531 0l-.283.142v-3.643l1.149-.574a27.722 27.722 0 0 1 24.8 0l1.148.574zm-30.967 9.308a2.9 2.9 0 0 1 1.935-2.729v5.449a2.9 2.9 0 0 1-1.935-2.72zm8.226 18.387l8.419 11.226a.968.968 0 0 0 1.548 0l8.419-11.226h2.515l-9.314 13.548h-4.788l-9.315-13.549zM8.9 50.354a4.844 4.844 0 0 1 4.839-4.839H17.1l9.314 13.548H8.9zm44.515 0v8.71H35.9l9.314-13.548h3.366a4.844 4.844 0 0 1 4.839 4.838zm-15.48-4.839l-6.774 9.032-6.774-9.032zm6.774-15.484a13.548 13.548 0 1 1-27.1 0V19.985l1.149-.574a27.726 27.726 0 0 1 24.8 0l1.148.574zm3.871-2.9a2.9 2.9 0 0 1-1.935 2.725V24.4a2.9 2.9 0 0 1 1.935 2.729zm-2.471-14.417l-1.683-.841a29.663 29.663 0 0 0-26.531 0l-1.683.841a.968.968 0 0 0-.535.866v.506l-6.1-2.442L31.161 3.01l21.588 8.635-6.1 2.442v-.507a.968.968 0 0 0-.54-.866zm7.309 10.543a.968.968 0 1 1 .968-.968.969.969 0 0 1-.967.969z" data-name="Path 52" style="fill:#fff;stroke:#fff"/>
    </g>
</svg>
